<svg width="57" height="43" viewBox="0 0 57 43" fill="none" xmlns="http://www.w3.org/2000/svg">
<path fill-rule="evenodd" clip-rule="evenodd" d="M35.2246 42.4928C32.252 36.7458 30.7658 30.5035 30.7658 23.7657C30.7658 16.9289 32.5741 11.281 36.1906 6.82223C39.8072 2.36341 45.4303 0.134003 53.0598 0.134003V9.49752C50.3845 9.49752 48.4276 10.092 47.189 11.281C45.9505 12.4701 45.3312 14.749 45.3312 18.1179V19.6042H56.181V42.4928H35.2246ZM4.4588 42.4928C1.48627 36.7458 0 30.5035 0 23.7657C0 16.9289 1.80829 11.281 5.42488 6.82223C9.04147 2.36341 14.6645 0.134003 22.294 0.134003V9.49752C19.6187 9.49752 17.6618 10.092 16.4233 11.281C15.1847 12.4701 14.5654 14.749 14.5654 18.1179V19.6042H25.4152V42.4928H4.4588Z" fill="#FD346E"/>
</svg>
